<svg xmlns="http://www.w3.org/2000/svg" viewBox="0 0 64 64" width="64" height="64">
  <defs>
    <radialGradient id="s3-glow" cx="50%" cy="50%" r="50%">
      <stop offset="0%" stop-color="#ef4444" stop-opacity="0.5"/>
      <stop offset="100%" stop-color="#ef4444" stop-opacity="0"/>
    </radialGradient>
  </defs>
  <circle cx="32" cy="32" r="28" fill="none" stroke="#ef4444" stroke-width="2" opacity="0.3"/>
  <circle cx="32" cy="32" r="18" fill="none" stroke="#ef4444" stroke-width="1" opacity="0.25"/>
  <circle cx="32" cy="32" r="9" fill="none" stroke="#ef4444" stroke-width="0.8" opacity="0.35"/>
  <g stroke="#fff" stroke-width="1" opacity="0.6">
    <line x1="32" y1="32" x2="32" y2="4"/>
    <line x1="32" y1="32" x2="56" y2="10"/>
    <line x1="32" y1="32" x2="60" y2="32"/>
    <line x1="32" y1="32" x2="56" y2="54"/>
    <line x1="32" y1="32" x2="32" y2="60"/>
    <line x1="32" y1="32" x2="8" y2="54"/>
    <line x1="32" y1="32" x2="4" y2="32"/>
    <line x1="32" y1="32" x2="8" y2="10"/>
  </g>
  <g stroke="#fff" stroke-width="0.5" opacity="0.3">
    <line x1="32" y1="32" x2="46" y2="6"/>
    <line x1="32" y1="32" x2="60" y2="20"/>
    <line x1="32" y1="32" x2="58" y2="46"/>
    <line x1="32" y1="32" x2="44" y2="60"/>
    <line x1="32" y1="32" x2="18" y2="60"/>
    <line x1="32" y1="32" x2="4" y2="44"/>
    <line x1="32" y1="32" x2="6" y2="20"/>
    <line x1="32" y1="32" x2="20" y2="4"/>
  </g>
  <g stroke="#ef4444" stroke-width="0.6" opacity="0.4">
    <line x1="32" y1="8" x2="28" y2="5"/>
    <line x1="32" y1="8" x2="36" y2="5"/>
    <line x1="56" y1="32" x2="59" y2="28"/>
    <line x1="56" y1="32" x2="59" y2="36"/>
    <line x1="32" y1="56" x2="28" y2="59"/>
    <line x1="8" y1="32" x2="5" y2="28"/>
  </g>
  <circle cx="32" cy="32" r="12" fill="url(#s3-glow)"/>
  <circle cx="32" cy="32" r="4" fill="#ef4444" opacity="0.8"/>
  <circle cx="32" cy="32" r="2" fill="#fff" opacity="0.9"/>
</svg>
