<svg xmlns="http://www.w3.org/2000/svg" viewBox="0 0 64 64" width="64" height="64">
  <defs>
    <linearGradient id="s2-grad" x1="0%" y1="0%" x2="100%" y2="100%">
      <stop offset="0%" stop-color="#ef4444"/>
      <stop offset="100%" stop-color="#dc2626"/>
    </linearGradient>
  </defs>
  <circle cx="14" cy="10" r="1.5" fill="#ef4444" opacity="0.6"/>
  <circle cx="19" cy="10" r="1.5" fill="#fbbf24" opacity="0.6"/>
  <circle cx="24" cy="10" r="1.5" fill="#22c55e" opacity="0.6"/>
  <rect x="8" y="6" width="48" height="52" rx="4" fill="none" stroke="url(#s2-grad)" stroke-width="2.5"/>
  <line x1="8" y1="16" x2="56" y2="16" stroke="url(#s2-grad)" stroke-width="1" opacity="0.4"/>
  <g transform="translate(3, -2) rotate(5, 48, 12)">
    <polygon points="36,16 56,16 56,6 52,6" fill="none" stroke="#ef4444" stroke-width="1.5" opacity="0.8"/>
  </g>
  <g transform="translate(4, 2) rotate(8, 50, 35)">
    <polygon points="40,26 56,22 56,40 44,38" fill="#ef4444" opacity="0.15" stroke="#ef4444" stroke-width="1"/>
  </g>
  <g transform="translate(5, 4) rotate(12, 52, 50)">
    <polygon points="42,42 56,40 56,58 52,58 48,52" fill="#ef4444" opacity="0.1" stroke="#ef4444" stroke-width="1"/>
  </g>
  <g transform="translate(7, 1) rotate(20, 46, 28)">
    <polygon points="44,24 50,22 48,28" fill="#ef4444" opacity="0.25"/>
  </g>
  <g opacity="0.6">
    <line x1="28" y1="30" x2="56" y2="16" stroke="#fff" stroke-width="0.8"/>
    <line x1="28" y1="30" x2="56" y2="35" stroke="#fff" stroke-width="0.8"/>
    <line x1="28" y1="30" x2="56" y2="52" stroke="#fff" stroke-width="0.8"/>
    <line x1="28" y1="30" x2="42" y2="58" stroke="#fff" stroke-width="0.6"/>
    <line x1="28" y1="30" x2="18" y2="58" stroke="#fff" stroke-width="0.4" opacity="0.3"/>
  </g>
  <circle cx="28" cy="30" r="3" fill="#ef4444" opacity="0.4"/>
  <circle cx="28" cy="30" r="1.5" fill="#fff" opacity="0.6"/>
</svg>
